HIERARCHY
ROOT Hips
{
	OFFSET 0.000000 0.000000 0.000000
	CHANNELS 6 Xposition Yposition Zposition Zrotation Yrotation Xrotation 
	JOINT LowerBack
	{
		OFFSET 0.000000 0.000000 0.000000
		CHANNELS 3 Zrotation Yrotation Xrotation
		JOINT Spine
		{
			OFFSET 0.028270 2.035590 -0.193380
			CHANNELS 3 Zrotation Yrotation Xrotation
			JOINT Spine1
			{
				OFFSET 0.056720 2.048850 -0.042750
				CHANNELS 3 Zrotation Yrotation Xrotation
				JOINT Neck
				{
					OFFSET 0.000000 0.000000 0.000000
					CHANNELS 3 Zrotation Yrotation Xrotation
					JOINT Neck1
					{
						OFFSET -0.054170 1.746240 0.172020
						CHANNELS 3 Zrotation Yrotation Xrotation
						JOINT Head
						{
							OFFSET 0.104070 1.761360 -0.123970
							CHANNELS 3 Zrotation Yrotation Xrotation
							End Site
							{
								OFFSET 0.000000 0.000000 0.000000
							}
						}
					}
				}
				JOINT LeftShoulder
				{
					OFFSET 0.000000 0.000000 0.000000
					CHANNELS 3 Zrotation Yrotation Xrotation
					JOINT LeftArm
					{
						OFFSET 3.362410 1.200890 -0.311210
						CHANNELS 3 Zrotation Yrotation Xrotation
						JOINT LeftForeArm
						{
							OFFSET 4.983000 -0.000000 -0.000000
							CHANNELS 3 Zrotation Yrotation Xrotation
							JOINT LeftHand
							{
								OFFSET 3.483560 -0.000000 -0.000000
								CHANNELS 3 Zrotation Yrotation Xrotation
								JOINT LeftFingerBase
								{
									OFFSET 0.000000 0.000000 0.000000
									CHANNELS 3 Zrotation Yrotation Xrotation
									JOINT LeftHandIndex1
									{
										OFFSET 0.715260 -0.000000 -0.000000
										CHANNELS 3 Zrotation Yrotation Xrotation
										End Site
										{
											OFFSET 0.000000 0.000000 0.000000
										}
									}
								}
								JOINT LThumb
								{
									OFFSET 0.000000 0.000000 0.000000
									CHANNELS 3 Zrotation Yrotation Xrotation
									End Site
									{
										OFFSET 0.000000 0.000000 0.000000
									}
								}
							}
						}
					}
				}
				JOINT RightShoulder
				{
					OFFSET 0.000000 0.000000 0.000000
					CHANNELS 3 Zrotation Yrotation Xrotation
					JOINT RightArm
					{
						OFFSET -3.136600 1.374050 -0.404650
						CHANNELS 3 Zrotation Yrotation Xrotation
						JOINT RightForeArm
						{
							OFFSET -5.241900 -0.000000 -0.000000
							CHANNELS 3 Zrotation Yrotation Xrotation
							JOINT RightHand
							{
								OFFSET -3.444170 -0.000000 -0.000000
								CHANNELS 3 Zrotation Yrotation Xrotation
								JOINT RightFingerBase
								{
									OFFSET 0.000000 0.000000 0.000000
									CHANNELS 3 Zrotation Yrotation Xrotation
									JOINT RightHandIndex1
									{
										OFFSET -0.622530 -0.000000 -0.000000
										CHANNELS 3 Zrotation Yrotation Xrotation
										End Site
										{
											OFFSET 0.000000 0.000000 0.000000
										}
									}
								}
								JOINT RThumb
								{
									OFFSET 0.000000 0.000000 0.000000
									CHANNELS 3 Zrotation Yrotation Xrotation
									End Site
									{
										OFFSET 0.000000 0.000000 0.000000
									}
								}
							}
						}
					}
				}
			}
		}
	}
}
}
MOTION
Frames: 13
Frame Time: 0.008333
3.323918 17.195931 0.907373 171.361526 -85.851255 -160.054514 0.539964 -1.937649 -4.946816 -0.162717 -2.038237 -3.843714 -5.490644 -1.877969 -1.569934 7.054620 -6.807321 -0.025042 -4.085843 -0.382439 2.084865 0.000000 0.000000 0.000000 9.399978 5.494366 -2.474832 -89.168963 -17.683871 22.578805 -178.733565 -52.726260 179.927959 4.659724 -8.839851 -0.413731 -0.095459 1.265714 -0.000000 0.000000 0.000000 0.000000 0.000000 0.000000 0.000000 1.928103 -4.868117 -4.067323 89.265445 25.455178 32.853362 -178.868379 64.369293 179.817790 -14.362030 14.204676 -1.967554 0.259041 -1.057365 -0.000000 0.000000 0.000000 0.000000 0.000000 0.000000 0.000000 
3.327331 17.196510 0.905780 169.876024 -86.173830 -158.574286 0.431281 -1.909237 -4.974894 -0.171831 -1.996835 -3.882168 -5.406443 -1.843244 -1.725923 6.987335 -6.563709 0.212621 -4.083587 -0.384626 2.150014 0.000000 0.000000 0.000000 9.350977 5.192840 -2.462522 -89.246886 -17.777403 22.837475 -178.791888 -52.870362 179.926891 4.672157 -8.844573 -0.414743 -0.091629 1.265663 -0.000000 0.000000 0.000000 0.000000 0.000000 0.000000 0.000000 2.042208 -4.618346 -4.078340 88.901598 26.063985 32.371672 -178.888255 65.136898 179.817774 -14.416009 13.950355 -1.938766 0.253412 -1.041136 -0.000000 0.000000 0.000000 0.000000 0.000000 0.000000 0.000000 
3.330855 17.197054 0.904204 168.235784 -86.486325 -156.944183 0.319471 -1.876154 -5.010004 -0.179281 -1.950198 -3.924990 -5.305377 -1.804028 -1.893127 6.911396 -6.289947 0.470700 -4.080936 -0.387004 2.220816 0.000000 0.000000 0.000000 9.296555 4.872451 -2.447100 -89.332250 -17.845324 23.088518 -178.859180 -53.015258 179.925780 4.679864 -8.845658 -0.415168 -0.086821 1.265143 -0.000000 0.000000 0.000000 0.000000 0.000000 0.000000 0.000000 2.176808 -4.332445 -4.090550 88.463173 26.803590 31.857024 -178.917353 66.017592 179.818006 -14.463916 13.679745 -1.906589 0.247317 -1.023770 -0.000000 0.000000 0.000000 0.000000 0.000000 0.000000 0.000000 
3.334433 17.197582 0.902670 166.474759 -86.784287 -155.198244 0.208589 -1.837251 -5.050437 -0.184663 -1.897551 -3.971681 -5.188617 -1.759252 -2.069966 6.825471 -5.979940 0.746788 -4.077029 -0.389488 2.296566 0.000000 0.000000 0.000000 9.230014 4.544635 -2.427988 -89.418897 -17.897745 23.334903 -178.931782 -53.164357 179.924638 4.684863 -8.845427 -0.415303 -0.081418 1.264334 -0.000000 0.000000 0.000000 0.000000 0.000000 0.000000 0.000000 2.327929 -4.002783 -4.103047 87.946150 27.672204 31.302521 -178.953163 67.016765 179.818452 -14.503608 13.397284 -1.871424 0.240483 -1.005426 -0.000000 0.000000 0.000000 0.000000 0.000000 0.000000 0.000000 
3.338295 17.198110 0.901217 164.647426 -87.063227 -153.394372 0.102375 -1.791628 -5.093236 -0.187384 -1.838280 -4.022052 -5.055665 -1.708114 -2.257292 6.727191 -5.631988 1.039175 -4.071724 -0.392064 2.376808 0.000000 0.000000 0.000000 9.149374 4.205796 -2.405048 -89.502149 -17.929980 23.567861 -179.009895 -53.310257 179.923432 4.689075 -8.844619 -0.415248 -0.075500 1.263297 -0.000000 0.000000 0.000000 0.000000 0.000000 0.000000 0.000000 2.492826 -3.626363 -4.112738 87.344603 28.670371 30.706209 -178.993911 68.143768 179.819062 -14.537436 13.103907 -1.833671 0.232852 -0.986167 -0.000000 0.000000 0.000000 0.000000 0.000000 0.000000 0.000000 
3.342454 17.198587 0.899862 162.792049 -87.319587 -151.570901 0.003015 -1.738103 -5.136785 -0.187444 -1.771451 -4.074846 -4.908416 -1.649297 -2.450455 6.614568 -5.246042 1.341263 -4.064062 -0.394607 2.459675 0.000000 0.000000 0.000000 9.047482 3.873162 -2.378906 -89.575759 -17.958551 23.794783 -179.088700 -53.457326 179.922182 4.694990 -8.846316 -0.415399 -0.069574 1.262256 -0.000000 0.000000 0.000000 0.000000 0.000000 0.000000 0.000000 2.666428 -3.202113 -4.118567 86.658874 29.794674 30.064387 -179.037510 69.407822 179.819805 -14.563529 12.806495 -1.794129 0.224176 -0.966214 -0.000000 0.000000 0.000000 0.000000 0.000000 0.000000 0.000000 
3.346999 17.199046 0.898581 160.990617 -87.549677 -149.810885 -0.086723 -1.675662 -5.177841 -0.184558 -1.696280 -4.129505 -4.747472 -1.581803 -2.649129 6.485102 -4.822742 1.649462 -4.053665 -0.397071 2.544197 0.000000 0.000000 0.000000 8.921994 3.545281 -2.349841 -89.634873 -17.981040 24.009326 -179.167878 -53.599934 179.920856 4.704863 -8.850894 -0.416055 -0.063780 1.261234 -0.000000 0.000000 0.000000 0.000000 0.000000 0.000000 0.000000 2.843141 -2.730073 -4.117264 85.887342 31.040856 29.375255 -179.082334 70.817190 179.820625 -14.584040 12.505539 -1.753197 0.214393 -0.945678 -0.000000 0.000000 0.000000 0.000000 0.000000 0.000000 0.000000 
3.352022 17.199485 0.897357 159.284533 -87.751346 -148.155832 -0.166402 -1.603587 -5.213766 -0.178901 -1.612120 -4.184694 -4.574500 -1.504706 -2.849606 6.336649 -4.366572 1.957031 -4.039791 -0.399356 2.628506 0.000000 0.000000 0.000000 8.769918 3.231572 -2.319231 -89.676429 -18.006619 24.214248 -179.245034 -53.737875 179.919462 4.720410 -8.859865 -0.417515 -0.058399 1.260324 -0.000000 0.000000 0.000000 0.000000 0.000000 0.000000 0.000000 3.015982 -2.215001 -4.107128 85.034477 32.404432 28.638325 -179.127333 72.380933 179.821465 -14.599363 12.205703 -1.711674 0.203394 -0.924799 -0.000000 0.000000 0.000000 0.000000 0.000000 0.000000 0.000000 
3.357596 17.199904 0.896200 157.785408 -87.922447 -146.717151 -0.233954 -1.521138 -5.241503 -0.170302 -1.518404 -4.240367 -4.390488 -1.417359 -3.053904 6.166884 -3.876389 2.262089 -4.021848 -0.401425 2.712149 0.000000 0.000000 0.000000 8.592560 2.924400 -2.287393 -89.698417 -18.026115 24.400698 -179.321802 -53.863236 179.917972 4.742412 -8.870687 -0.419579 -0.053356 1.259367 -0.000000 0.000000 0.000000 0.000000 0.000000 0.000000 0.000000 3.175050 -1.656166 -4.084968 84.101968 33.873499 27.847074 -179.171644 74.102039 179.822270 -14.610373 11.902947 -1.668958 0.191107 -0.903715 -0.000000 0.000000 0.000000 0.000000 0.000000 0.000000 0.000000 
3.363745 17.200350 0.895040 156.494600 -88.063646 -145.494445 -0.290546 -1.428349 -5.258975 -0.159085 -1.415103 -4.295564 -4.197266 -1.319601 -3.260108 5.974264 -3.356889 2.559502 -3.998930 -0.403192 2.793729 0.000000 0.000000 0.000000 8.390129 2.627272 -2.255936 -89.699998 -18.043841 24.570232 -179.397451 -53.975258 179.916403 4.771185 -8.883491 -0.422449 -0.048729 1.258329 -0.000000 0.000000 0.000000 0.000000 0.000000 0.000000 0.000000 3.310872 -1.059969 -4.049562 83.097951 35.439974 26.998996 -179.216091 75.987882 179.822996 -14.616130 11.600065 -1.625647 0.177458 -0.882736 -0.000000 0.000000 0.000000 0.000000 0.000000 0.000000 0.000000 
3.370587 17.200804 0.893819 155.445439 -88.175559 -144.520399 -0.335873 -1.325095 -5.264725 -0.145425 -1.302187 -4.349273 -3.997123 -1.211314 -3.465487 5.757926 -2.815745 2.842945 -3.970464 -0.404572 2.871548 0.000000 0.000000 0.000000 8.162561 2.345598 -2.226565 -89.681811 -18.065208 24.726958 -179.470840 -54.076318 179.914767 4.806919 -8.896892 -0.425924 -0.044636 1.257100 -0.000000 0.000000 0.000000 0.000000 0.000000 0.000000 0.000000 3.415715 -0.435881 -4.000533 82.031087 37.098931 26.093529 -179.262930 78.045579 179.823603 -14.616667 11.298261 -1.581937 0.162509 -0.862164 -0.000000 0.000000 0.000000 0.000000 0.000000 0.000000 0.000000 
3.378101 17.201330 0.892528 154.642402 -88.260230 -143.796958 -0.370449 -1.211739 -5.257136 -0.129440 -1.180005 -4.401796 -3.791327 -1.092922 -3.673385 5.517314 -2.252851 3.112299 -3.935717 -0.405545 2.945648 0.000000 0.000000 0.000000 7.914916 2.068617 -2.200275 -89.646645 -18.079935 24.864484 -179.544690 -54.160223 179.913080 4.847621 -8.907627 -0.429806 -0.040770 1.255437 -0.000000 0.000000 0.000000 0.000000 0.000000 0.000000 0.000000 3.478942 0.213744 -3.936576 80.908748 38.836942 25.121636 -179.315124 80.277581 179.824067 -14.608800 10.994522 -1.537127 0.146248 -0.842312 -0.000000 0.000000 0.000000 0.000000 0.000000 0.000000 0.000000 
3.386248 17.201856 0.891046 153.998315 -88.320318 -143.235442 -0.395764 -1.088700 -5.233038 -0.111738 -1.048974 -4.450125 -3.583561 -0.964699 -3.874460 5.253185 -1.688374 3.355824 -3.894854 -0.405996 3.012735 0.000000 0.000000 0.000000 7.645185 1.818665 -2.179918 -89.595913 -18.113352 25.001700 -179.613671 -54.239983 179.911394 4.894311 -8.917817 -0.434194 -0.037616 1.253426 -0.000000 0.000000 0.000000 0.000000 0.000000 0.000000 0.000000 3.499463 0.865665 -3.860335 79.746026 40.667115 24.096481 -179.378200 82.700133 179.824341 -14.596077 10.698530 -1.493013 0.129007 -0.823618 -0.000000 0.000000 0.000000 0.000000 0.000000 0.000000 0.000000 
